HIERARCHY
ROOT Hips
{
	OFFSET	0.00	0.00	0.00
	CHANNELS 6 Xposition Yposition Zposition Zrotation Xrotation Yrotation
	JOINT LeftUpLeg
	{
		OFFSET	 0.126116	-0.014019	-0.065224
		CHANNELS 3 Zrotation Xrotation Yrotation
		JOINT LeftLeg
		{
			OFFSET	 0.000000	 0.000000	 0.569914
			CHANNELS 3 Zrotation Xrotation Yrotation
			JOINT LeftFoot
			{
				OFFSET	 0.000000	 0.000000	 0.544423
				CHANNELS 3 Zrotation Xrotation Yrotation
				JOINT LeftToeBase
				{
					OFFSET	 0.000000	 0.000000	 0.207117
					CHANNELS 3 Zrotation Xrotation Yrotation
					End Site
					{
						OFFSET	 0.000000	 0.000000	 0.207117
					}
				}
			}
		}
	}
	JOINT RightUpLeg
	{
		OFFSET	-0.124023	-0.008373	-0.065224
		CHANNELS 3 Zrotation Xrotation Yrotation
		JOINT RightLeg
		{
			OFFSET	 0.000000	 0.000000	 0.570047
			CHANNELS 3 Zrotation Xrotation Yrotation
			JOINT RightFoot
			{
				OFFSET	 0.000000	 0.000000	 0.544354
				CHANNELS 3 Zrotation Xrotation Yrotation
				JOINT RightToeBase
				{
					OFFSET	 0.000000	 0.000000	 0.207540
					CHANNELS 3 Zrotation Xrotation Yrotation
					End Site
					{
						OFFSET	 0.000000	 0.000000	 0.207540
					}
				}
			}
		}
	}
	JOINT Spine
	{
		OFFSET	 0.000184	-0.007763	 0.117403
		CHANNELS 3 Zrotation Xrotation Yrotation
		JOINT Spine1
		{
			OFFSET	 0.000000	 0.000000	 0.137269
			CHANNELS 3 Zrotation Xrotation Yrotation
			JOINT Spine2
			{
				OFFSET	 0.000000	 0.000000	 0.156879
				CHANNELS 3 Zrotation Xrotation Yrotation
				JOINT LeftShoulder
				{
					OFFSET	 0.080501	-0.002496	 0.160144
					CHANNELS 3 Zrotation Xrotation Yrotation
					JOINT LeftArm
					{
						OFFSET	 0.000000	 0.000000	 0.164363
						CHANNELS 3 Zrotation Xrotation Yrotation
						JOINT LeftForeArm
						{
							OFFSET	 0.000000	 0.000000	 0.364576
							CHANNELS 3 Zrotation Xrotation Yrotation
							JOINT LeftHand
							{
								OFFSET	 0.000000	 0.000000	 0.360812
								CHANNELS 3 Zrotation Xrotation Yrotation
								JOINT LeftHandIndex1
								{
									OFFSET	 0.000000	 0.000000	 0.086006
									CHANNELS 3 Zrotation Xrotation Yrotation
									JOINT LeftHandIndex2
									{
										OFFSET	 0.000000	 0.000000	 0.047236
										CHANNELS 3 Zrotation Xrotation Yrotation
										JOINT LeftHandIndex3
										{
											OFFSET	-0.004284	-0.000551	 0.038166
											CHANNELS 3 Zrotation Xrotation Yrotation
											End Site
											{
												OFFSET	-0.004284	-0.000551	 0.038166
											}
										}
									}
								}
							}
						}
					}
				}
				JOINT Neck
				{
					OFFSET	 0.000000	 0.000000	 0.176489
					CHANNELS 3 Zrotation Xrotation Yrotation
					JOINT Head
					{
						OFFSET	 0.000000	-0.001747	 0.077940
						CHANNELS 3 Zrotation Xrotation Yrotation
						End Site
						{
							OFFSET	 0.000000	-0.001747	 0.077940
						}
					}
				}
				JOINT RightShoulder
				{
					OFFSET	-0.080363	 0.000306	 0.159706
					CHANNELS 3 Zrotation Xrotation Yrotation
					JOINT RightArm
					{
						OFFSET	 0.000000	 0.000000	 0.164196
						CHANNELS 3 Zrotation Xrotation Yrotation
						JOINT RightForeArm
						{
							OFFSET	 0.000000	 0.000000	 0.365611
							CHANNELS 3 Zrotation Xrotation Yrotation
							JOINT RightHand
							{
								OFFSET	 0.000000	 0.000000	 0.360648
								CHANNELS 3 Zrotation Xrotation Yrotation
								JOINT RightHandIndex1
								{
									OFFSET	 0.000000	 0.000000	 0.069977
									CHANNELS 3 Zrotation Xrotation Yrotation
									JOINT RightHandIndex2
									{
										OFFSET	 0.000000	 0.000000	 0.052305
										CHANNELS 3 Zrotation Xrotation Yrotation
										JOINT RightHandIndex3
										{
											OFFSET	 0.009002	-0.000782	 0.042196
											CHANNELS 3 Zrotation Xrotation Yrotation
											End Site
											{
												OFFSET	 0.009002	-0.000782	 0.042196
											}
										}
									}
								}
							}
						}
					}
				}
			}
		}
	}
}
MOTION
Frames:    6
Frame Time: 0.03333334
 0.000296	 0.019717	 1.271209	-0.002749	 0.004121	 0.174441	-1.638023	-1.712483	 177.881000	 1.472901	-11.986400	-0.699816	-7.002125	 71.193010	 0.861467	-2.385833	 28.452760	 0.000004	 1.473497	-1.780202	-178.164200	-1.464046	-11.611460	 0.664852	 6.672557	 70.849750	-0.707993	 2.384658	 28.388730	 0.000004	-5.161198	 2.624344	 0.286716	-2.150643	 4.006156	-0.783007	 6.509321	-4.937446	 1.430061	-91.776160	 78.527470	 180.000000	 60.277190	 40.816520	-60.193790	-8.550722	 0.195080	-0.713667	-30.581930	-11.918940	-4.505327	-2.635965	 4.993658	 6.788941	-5.165319	 0.784187	 3.516649	-5.225038	 0.466231	 0.424329	-0.000002	-3.783157	-0.089647	 6.319200	 4.429047	-0.244623	 89.782080	 78.203890	 180.000000	-64.098230	 41.925670	 57.168150	 8.058132	 3.543288	 8.239855	 30.884710	-12.718470	 9.145386	 6.112037	 4.509576	-0.364401	 4.968462	 1.518543	-9.347576	 5.168945	 0.703820	 2.021906
 0.000296	 0.019717	 1.271281	-0.002355	 0.004804	 0.174292	-1.497165	-1.712839	 177.870200	 1.473082	-11.972150	-0.698958	-6.998215	 71.176850	 0.858015	-2.385833	 28.452760	 0.000004	 1.332606	-1.779974	-178.154000	-1.464210	-11.597840	 0.664050	 6.668251	 70.834430	-0.703142	 2.384658	 28.388730	 0.000004	-5.754158	 2.550739	 0.274139	-2.127457	 4.260980	-0.755668	 6.437366	-5.270230	 1.435789	-91.776150	 78.527470	 180.000000	 60.346520	 40.844130	-60.089190	-8.823316	 0.201227	-0.886682	-30.825170	-12.369870	-4.559607	-2.635965	 4.993658	 6.788941	-5.165319	 0.784187	 3.516649	-5.225038	 0.466231	 0.424329	-0.000002	-3.783157	-0.089647	 6.235787	 4.283621	-0.233455	 89.782120	 78.203890	 180.000000	-63.941970	 41.784730	 57.759830	 8.107525	 3.355543	 7.969041	 31.084120	-13.284100	 9.131454	 6.112037	 4.509576	-0.364401	 4.968462	 1.518543	-9.347576	 5.168945	 0.703820	 2.021906
 0.000289	 0.019719	 1.271427	-0.001625	 0.005980	 0.171074	-1.252504	-1.709949	 177.854100	 1.473483	-11.939950	-0.697022	-6.989542	 71.145030	 0.850320	-2.385833	 28.452760	 0.000004	 1.088656	-1.782423	-178.133900	-1.464416	-11.580130	 0.663007	 6.661893	 70.810850	-0.695635	 2.384658	 28.388730	 0.000004	-6.788839	 2.425548	 0.251188	-2.057910	 4.694393	-0.699090	 6.223366	-5.842322	 1.423446	-91.776160	 78.527430	 180.000000	 60.457750	 40.889770	-59.896850	-9.322368	 0.215362	-1.201051	-31.274150	-13.193890	-4.668932	-2.635965	 4.993658	 6.788941	-5.165319	 0.784187	 3.516649	-5.225038	 0.466231	 0.424329	-0.000002	-3.783157	-0.089647	 6.005558	 4.046019	-0.212340	 89.782110	 78.203870	 180.000000	-63.648380	 41.201010	 59.185470	 8.001013	 2.942337	 7.373847	 31.685490	-14.563600	 9.001467	 6.112037	 4.509576	-0.364401	 4.968462	 1.518543	-9.347576	 5.168945	 0.703820	 2.021906
 0.000270	 0.019725	 1.271601	-0.000794	 0.007180	 0.163013	-0.970996	-1.701821	 177.839300	 1.474061	-11.893040	-0.694203	-6.961063	 71.104440	 0.835280	-2.385833	 28.452760	 0.000004	 0.832521	-1.788748	-178.108900	-1.464543	-11.569290	 0.662370	 6.670813	 70.789230	-0.692113	 2.384658	 28.388730	 0.000004	-7.922479	 2.293787	 0.225584	-1.938734	 5.150836	-0.625524	 5.858953	-6.453229	 1.374906	-91.776170	 78.527490	 180.000000	 60.553660	 40.938290	-59.657510	-9.905098	 0.238787	-1.569192	-31.804020	-14.148020	-4.812718	-2.635965	 4.993658	 6.788941	-5.165319	 0.784187	 3.516649	-5.225038	 0.466231	 0.424329	-0.000002	-3.783157	-0.089647	 5.630512	 3.809036	-0.187391	 89.782060	 78.203890	-180.000000	-62.511630	 40.222470	 59.653680	 7.617788	 3.432718	 8.942203	 32.400500	-16.078710	 8.865241	 6.112037	 4.509576	-0.364401	 4.968462	 1.518543	-9.347576	 5.168945	 0.703820	 2.021906
 0.000242	 0.019736	 1.271754	-0.000074	 0.008111	 0.151260	-0.725707	-1.689238	 177.830400	 1.474708	-11.840900	-0.691071	-6.949594	 71.062390	 0.823727	-2.385833	 28.452760	 0.000004	 0.587130	-1.799924	-178.081500	-1.464539	-11.569680	 0.662394	 6.665827	 70.774890	-0.687050	 2.384658	 28.388730	 0.000004	-8.948040	 2.180737	 0.203109	-1.790805	 5.542995	-0.549915	 5.408897	-6.985109	 1.296495	-91.776320	 78.527470	-179.999900	 60.607250	 40.977090	-59.402610	-10.468600	 0.270484	-1.929912	-32.320640	-15.054280	-4.967676	-2.635965	 4.993658	 6.788941	-5.165319	 0.784187	 3.516649	-5.225038	 0.466231	 0.424329	-0.000002	-3.783157	-0.089647	 5.179175	 3.616254	-0.163621	 89.782110	 78.203850	 180.000000	-60.552200	 38.938900	 58.954580	 6.878754	 4.824754	 12.771250	 32.885860	-17.577590	 8.662364	 6.112037	 4.509576	-0.364401	 4.968462	 1.518543	-9.347576	 5.168945	 0.703820	 2.021906
 0.000200	 0.019757	 1.271939	 0.000599	 0.008824	 0.133856	-0.459378	-1.671622	 177.825000	 1.475495	-11.776780	-0.687221	-6.935912	 71.012900	 0.809873	-2.385833	 28.452760	 0.000004	 0.321467	-1.818371	-178.048200	-1.464381	-11.583490	 0.663204	 6.662824	 70.766180	-0.684067	 2.384658	 28.388730	 0.000004	-10.037440	 2.068959	 0.180801	-1.589419	 5.931880	-0.461278	 4.799161	-7.519079	 1.173556	-91.776180	 78.527450	 180.000000	 60.625980	 41.010790	-59.095320	-11.110540	 0.313374	-2.336766	-32.913290	-16.058160	-5.162337	-2.635965	 4.993658	 6.788941	-5.165319	 0.784187	 3.516649	-5.225038	 0.466231	 0.424329	-0.000002	-3.783157	-0.089647	 4.579015	 3.434925	-0.137385	 89.782160	 78.203900	 179.999900	-58.206780	 37.474990	 60.333620	 5.949470	 5.103867	 14.282340	 33.058690	-19.343460	 8.263165	 6.112037	 4.509576	-0.364401	 4.968462	 1.518543	-9.347576	 5.168945	 0.703820	 2.021906
